<?xml version="1.0" standalone="no"?>
<!DOCTYPE svg PUBLIC "-//W3C//DTD SVG 20010904//EN"
 "http://www.w3.org/TR/2001/REC-SVG-20010904/DTD/svg10.dtd">
<svg version="1.0" xmlns="http://www.w3.org/2000/svg"
 width="700.000000pt" height="700.000000pt" viewBox="0 0 700.000000 700.000000"
 preserveAspectRatio="xMidYMid meet">
<metadata>
Created by potrace 1.11, written by Peter Selinger 2001-2013
</metadata>
<g transform="translate(0.000000,700.000000) scale(0.100000,-0.100000)"
fill="#000000" stroke="none">
<path d="M3290 6994 c-19 -2 -87 -9 -150 -15 -578 -54 -1180 -280 -1660 -622
-310 -222 -615 -527 -837 -837 -334 -469 -546 -1022 -620 -1620 -24 -201 -24
-599 0 -800 53 -429 188 -871 370 -1210 68 -128 191 -330 198 -328 22 8 1077
1069 1133 1140 134 167 227 340 268 501 21 80 21 85 5 197 -42 296 -29 508 48
775 96 329 333 666 620 878 448 332 1029 424 1563 246 151 -50 199 -113 156
-199 -12 -24 -218 -231 -541 -545 -515 -499 -523 -507 -539 -563 -28 -94 -7
-265 57 -474 16 -53 36 -104 45 -112 8 -9 59 -29 112 -45 206 -63 381 -84 474
-57 54 15 66 26 547 518 270 277 510 518 533 537 38 30 47 33 90 29 62 -6 89
-32 123 -115 129 -323 139 -765 25 -1123 -38 -118 -142 -330 -212 -432 -242
-350 -593 -594 -1003 -696 -196 -49 -376 -60 -623 -38 -148 14 -195 15 -240 5
-139 -28 -313 -109 -492 -228 -101 -66 -161 -121 -490 -443 -206 -201 -453
-444 -548 -540 l-172 -173 107 -67 c461 -285 927 -449 1463 -515 201 -24 599
-24 800 0 529 66 1014 235 1455 510 371 231 739 579 1002 947 334 469 546
1022 620 1620 24 201 24 599 0 800 -66 529 -235 1014 -510 1455 -231 371 -579
739 -947 1002 -468 333 -1024 546 -1615 619 -122 14 -538 27 -615 18z"/>
</g>
</svg>
